<?xml version="1.0" encoding="utf-8"?>
<!-- Generator: Adobe Illustrator 14.0.0, SVG Export Plug-In . SVG Version: 6.00 Build 43363)  -->
<!DOCTYPE svg PUBLIC "-//W3C//DTD SVG 1.1//EN" "http://www.w3.org/Graphics/SVG/1.1/DTD/svg11.dtd">
<svg version="1.1" id="Layer_1" xmlns="http://www.w3.org/2000/svg" xmlns:xlink="http://www.w3.org/1999/xlink" x="0px" y="0px"
	 width="442px" height="442px" viewBox="0 0 442 442" enable-background="new 0 0 442 442" xml:space="preserve">
<rect x="-1.5" y="-0.5" fill-rule="evenodd" clip-rule="evenodd" fill="#0097F4" width="445" height="445"/>
<g>
	<path fill-rule="evenodd" clip-rule="evenodd" fill="#FFFFFF" d="M198.771,278.874c0-52.532,53.364-95.282,118.951-95.282
		c17.357,0,33.826,3.041,48.717,8.435c0-0.746,0.028-1.492,0.028-2.238c0-74.309-77.723-134.501-173.606-134.501
		c-95.869,0-173.649,60.193-173.649,134.501c0,46.335,29.996,87.248,76.345,111.406v77.263l57.797-57.726
		c12.696,2.267,25.908,3.529,39.479,3.529c6.67,0,13.255-0.315,19.725-0.917C203.778,310.061,198.771,294.94,198.771,278.874"/>
	<path fill-rule="evenodd" clip-rule="evenodd" fill="#FFFFFF" d="M317.723,197.479c58.012,0,105.064,36.438,105.064,81.396
		c0,28.087-18.333,52.818-46.249,67.479v46.737l-34.944-34.945c-7.661,1.378-15.638,2.123-23.871,2.123
		c-58.041,0-105.065-36.438-105.065-81.395C212.658,233.916,259.682,197.479,317.723,197.479"/>
</g>
</svg>
