<?xml version="1.0" encoding="utf-8"?>
<!-- Generator: Adobe Illustrator 14.0.0, SVG Export Plug-In . SVG Version: 6.00 Build 43363)  -->
<!DOCTYPE svg PUBLIC "-//W3C//DTD SVG 1.1//EN" "http://www.w3.org/Graphics/SVG/1.1/DTD/svg11.dtd">
<svg version="1.1" xmlns="http://www.w3.org/2000/svg" xmlns:xlink="http://www.w3.org/1999/xlink" x="0px" y="0px" width="1609px"
	 height="713px" viewBox="0 0 1609 713" enable-background="new 0 0 1609 713" xml:space="preserve">
<g id="Layer_2">
	<rect fill="#F6F6F6" width="1609" height="713"/>
</g>
<g id="Layer_3">
	<g>
		<g>
			<path fill="#F0F0F0" d="M1276.517,401.17c10.355,5.14,19.792,7.206,21.077,4.617c0.005-0.013,0.009-0.023,0.014-0.034
				c0.151-0.182,0.294-0.399,0.429-0.661c2.034-3.877,2.825-8.094,3.316-12.379c0.567-4.938,0.286-9.832-0.852-14.678
				c-0.128-0.546-0.185-1.131-0.151-1.689c0.035-0.646,0.32-1.094,0.725-1.285l47.524,49.527c1.703,1.776,1.917,4.745,0.512,6.767
				l-29.046,41.951h16.063l28.388-41.331c1.839-2.807,1.5-6.636-0.819-9.063l-44.001-46.06c-1.571-1.643-3.721-2.641-5.993-2.729
				l-3.933-0.165l-6.063-4.306l2.026-4.1c0.02-0.057,0.038-0.11,0.059-0.153c0.394-0.821,0.81-1.632,1.242-2.434
				c0.553-1.025,0.486-2.029-0.305-2.843c-1.087-1.118-2.186-2.261-3.441-3.165c-2.881-2.079-6.003-3.724-9.557-4.343
				c-1.991-0.349-2.814,0.058-3.774,1.825c-1.996,3.674-3.963,7.365-5.943,11.049c-0.012,0.025-0.024,0.051-0.038,0.076
				c-0.696,1.233-1.553,2.109-2.992,2.688c-2.333,0.938-4.583,2.176-6.691,3.559c-4.524,2.969-8.579,6.502-11.74,10.942
				c-0.817,1.149-1.412,2.461-2.074,3.718c-0.067,0.127-0.12,0.256-0.16,0.381c-0.09,0.101-0.165,0.205-0.223,0.323
				C1258.81,389.765,1266.161,396.031,1276.517,401.17 M1357.233,430.543c-1.65,0-2.989-1.339-2.989-2.99
				c0-1.652,1.339-2.991,2.989-2.991c1.653,0,2.992,1.339,2.992,2.991C1360.226,429.204,1358.887,430.543,1357.233,430.543
				 M1350.135,435.631c0.748-1.076,2.094-1.565,3.359-1.221c2.065,0.562,2.954,2.996,1.739,4.757l-20.035,29.022
				c-0.54,0.783-1.43,1.266-2.382,1.266h-3.453c-1.163,0-1.845-1.322-1.18-2.276L1350.135,435.631z M1307.973,377.311l0.647,0.007
				l4.949,0.192c1.395,0.055,2.691,0.641,3.655,1.649l34.958,36.549c1.023,1.069,0.976,2.769-0.106,3.778
				c-1.062,0.992-2.724,0.945-3.73-0.103L1307.973,377.311z M1265.036,389.079c0.999-2.013,8.334-0.407,16.383,3.587
				c8.048,3.996,13.763,8.865,12.762,10.879c-0.997,2.013-8.332,0.406-16.381-3.588
				C1269.753,395.963,1264.038,391.092,1265.036,389.079"/>
			<path fill="#F0F0F0" d="M1352.942,481.009v-0.089c0-3.207-3.814-6.33-7.021-6.33h-37.709c-3.206,0-4.052,3.123-4.052,6.33v0.089
				H1352.942z"/>
			<rect x="1251.092" y="493.571" fill="#F0F0F0" width="123.46" height="93.958"/>
			<path fill="#F6F6F6" d="M1369.632,502.897c0-2.164-1.754-3.916-3.917-3.916h-106.42c-2.163,0-3.916,1.752-3.916,3.916v75.611
				c0,2.162,1.753,3.916,3.916,3.916h106.42c2.163,0,3.917-1.754,3.917-3.916V502.897z M1367.063,578.322
				c0,0.848-0.687,1.534-1.534,1.534h-106.05c-0.847,0-1.534-0.687-1.534-1.534v-75.239c0-0.848,0.688-1.534,1.534-1.534h106.05
				c0.848,0,1.534,0.687,1.534,1.534V578.322z"/>
			<path fill="#F0F0F0" d="M1374.646,483.016h-124.365c-2.375,0-4.301,1.926-4.301,4.301c0,2.377,1.926,4.301,4.301,4.301h124.365
				c2.374,0,4.3-1.924,4.3-4.301C1378.946,484.941,1377.021,483.016,1374.646,483.016"/>
			<path fill="#F6F6F6" d="M1324.271,542.56h-22.897c-1.104,0-2.008-0.903-2.008-2.009c0-1.104,0.904-2.008,2.008-2.008h22.897
				c1.105,0,2.01,0.903,2.01,2.008C1326.28,541.656,1325.376,542.56,1324.271,542.56"/>
			<g>
				<path fill="#F0F0F0" d="M1093.707,229.123H514.293v353.081h286.119v0.352h8.529v-0.352h284.766V229.123z M523.346,235.912
					h277.066v118.361c-1.492,8.638-3.074,17.27-3.764,25.971c-1.818,22.846-3.558,45.745-3.965,68.647
					c-0.744,42.164-0.543,84.343-0.716,126.52h-10.412c-0.217-37.656-0.282-73.804-0.733-110.682
					c-0.302-24.778-2.417-49.477-7.079-73.854c-0.215-1.119-0.765-2.188-1.333-3.329l-14.641,6.525l-14.906-6.541
					c-0.385,1.926-0.802,3.886-1.169,5.861c-5.262,28.237-6.609,56.812-6.967,85.436c-0.395,31.615-0.351,63.319-0.508,94.942
					c-0.004,0.659-0.047,1.079-0.099,1.641h-10.577c-0.274-14.896-0.507-29.795-0.895-44.688c-0.078-2.993-0.672-6.006-1.329-8.94
					c-1.024-4.575-2.521-9.053-3.359-13.657c-0.304-1.669,0.762-3.564,1.096-5.375c0.88-4.771,1.822-9.533,2.51-14.332
					c0.606-4.219,1.104-8.477,1.247-12.732c0.071-2.079-0.831-4.179-1.2-6.287c-0.495-2.848-0.758-5.74-1.394-8.551
					c-0.578-2.554-1.652-4.993-2.244-7.545c-0.303-1.315-0.27-2.82,0.035-4.142c0.59-2.567,1.68-5.021,2.204-7.6
					c1.034-5.069,2.389-10.171,2.557-15.299c0.182-5.47-0.557-11.029-1.447-16.457c-0.751-4.585-2.352-9.023-3.446-13.557
					c-0.239-0.993-0.075-2.158,0.17-3.178c0.665-2.76,1.598-5.458,2.199-8.229c0.59-2.728,0.448-5.689,1.43-8.24
					c2.232-5.814,1.355-11.621,0.957-17.479c-1.193-0.203-2.201-0.371-3.236-0.549c-0.117-1.781-0.219-3.346-0.32-4.927
					c-1.327-0.229-2.44-0.426-3.618-0.63c-0.078-1.757-0.148-3.331-0.221-4.964c-1.289-0.182-2.409-0.34-3.62-0.508
					c-0.115-1.843-0.219-3.506-0.323-5.141c-1.368-0.239-2.475-0.429-3.612-0.624c-0.092-1.794-0.176-3.364-0.26-4.947
					c-1.194-0.269-2.18-0.495-3.15-0.711c-0.09-1.693-0.169-3.179-0.258-4.784c-0.988-0.225-1.883-0.431-2.913-0.667
					c-1.631-15.306-3.253-30.524-4.878-45.745c-0.237,0.023-0.478,0.042-0.719,0.063c-1.613,15.207-3.224,30.408-4.847,45.711
					c-1.072,0.225-1.966,0.413-2.929,0.616c-0.095,1.741-0.183,3.315-0.271,4.946c-1.081,0.182-2,0.332-3.024,0.504
					c-0.144,1.772-0.274,3.435-0.404,5.092c-1.331,0.222-2.444,0.407-3.563,0.592c-0.124,1.883-0.229,3.541-0.338,5.186
					c-1.377,0.139-2.411,0.245-3.556,0.362c-0.117,1.817-0.223,3.464-0.325,5.04c-1.47,0.282-2.583,0.497-3.695,0.711
					c-0.126,1.773-0.241,3.338-0.354,4.92c-1.154,0.159-2.071,0.288-2.699,0.371c-2.292,7.439-0.069,14.429,0.844,21.475
					c0.258,2.012,0.889,3.976,1.3,5.973c0.862,4.15,3.276,7.811,1.326,12.674c-2.135,5.327-2.825,11.254-3.974,16.953
					c-1.383,6.873,0.332,13.596,1.362,20.328c0.321,2.102,1.039,4.143,1.521,6.223c0.716,3.086,1.578,6.152,1.98,9.282
					c0.163,1.28-0.835,2.673-1.098,4.054c-0.52,2.741-0.847,5.521-1.348,8.268c-0.372,2.01-1.055,3.977-1.317,5.998
					c-0.521,3.975-1.088,7.971-1.161,11.966c-0.04,2.317,0.884,4.645,1.309,6.98c0.866,4.749,0.778,9.942,2.781,14.141
					c2.086,4.382-0.907,7.675-0.529,11.515c0.182,1.839-0.691,3.804-1.182,5.686c-0.716,2.748-2.012,5.447-2.189,8.219
					c-0.517,8.19-0.707,16.404-0.835,24.613c-0.117,7.338-0.042,14.682-0.027,22.022H650.81
					c-0.383-41.911-0.896-83.828,7.024-125.449c-4.324-0.677-7.79-1.294-11.275-1.747c-7.236-0.937-14.258-2.295-20.77-6.016
					c-6.211-3.555-12.793-6.473-19.216-9.658c-1.014-0.501-2.054-0.952-3.466-1.604c0.129,2.747,0.212,4.983,0.336,7.215
					c1.235,22.034,2.968,44.052,3.581,66.105c0.661,23.701,0.276,47.433,0.332,71.153H592.71
					c-0.015-7.441-0.037-14.881-0.041-22.322c-0.004-14.791,0.005-29.581-0.009-44.369c0-1.419,0.486-3.125-1.916-3.286
					c-0.776-0.052-1.512-0.682-2.269-1.048c0.612-0.684,1.221-1.364,1.638-1.828c-0.424-0.389-1.434-0.897-1.536-1.547
					c-0.083-0.54,0.904-1.243,1.399-1.847c-2.118-1.271-2.14-1.812,0.088-3.178c-1.094-0.728-2.961-1.253-0.694-2.829
					c0.148-0.103,0.195-0.688,0.093-0.758c-3.145-2.136,0.548-2.184,0.942-3.102c-0.672-0.422-1.309-0.825-1.95-1.229
					c0.646-0.79,1.291-1.584,1.789-2.197c-0.506-0.324-1.147-0.734-1.79-1.147c0.687-0.76,1.373-1.515,1.833-2.023
					c-0.522-0.409-1.722-0.944-1.705-1.428c0.033-0.82,0.579-1.621,1.011-2.429l-1.126-0.898c0.682-0.653,1.368-1.309,1.85-1.769
					c-0.44-0.312-1.141-0.807-1.844-1.303c0.336-0.425,0.672-0.85,1.009-1.274c-0.348-0.721-0.99-1.483-0.916-2.161
					c0.075-0.678,0.902-1.272,1.371-1.863c-2.015-0.922-2.622-1.954,0.273-3.073c-2.617-1.112-2.188-2.338-0.029-3.499
					c-4.033-1.824-0.417-2.45,0.282-3.319c-0.699-0.425-1.345-0.829-1.993-1.227c0.644-0.786,1.29-1.573,1.793-2.191
					c-0.493-0.306-1.143-0.708-1.793-1.107c0.662-0.771,1.323-1.539,1.758-2.046c-0.513-0.433-1.675-1.002-1.64-1.48
					c0.068-0.88,0.842-1.705,1.125-2.205c0.073,0.054-0.588-0.474-1.249-1c0.652-0.685,1.307-1.374,1.773-1.865
					c-0.398-0.289-1.101-0.795-1.804-1.305c0.57-0.693,1.136-1.388,1.614-1.971c-0.425-0.372-1.535-0.969-1.466-1.359
					c0.125-0.724,0.941-1.33,1.443-1.951c-2.313-1.403-2.328-1.687,0.236-3.234c-2.199-0.93-2.836-2.005-0.06-3.233
					c-3.483-1.557-1.081-2.56,0.11-3.404c-0.68-0.433-1.253-0.798-1.824-1.164c0.641-0.815,1.285-1.629,1.802-2.286
					c-0.451-0.256-1.127-0.642-1.802-1.022c0.636-0.797,1.275-1.588,1.708-2.131c-0.468-0.39-1.666-0.971-1.624-1.435
					c0.08-0.862,0.886-1.659,1.196-2.166c-0.031-0.024-0.672-0.57-1.309-1.117c0.627-0.65,1.251-1.299,1.653-1.715
					c-0.486-0.477-1.489-1.025-1.531-1.643c-0.038-0.571,0.95-1.213,1.452-1.782c-2.316-0.947-2.303-2.078-0.455-2.949v-66.893
					c-8.742,4.504-16.586,8.547-24.38,12.563c-0.597-3.78-0.597-3.78-4.9-3.775c-0.533,0-1.081,0.075-1.605-0.013
					c-2.683-0.442-3.235,0.876-3.167,3.293c0.153,5.139,0.097,10.287-0.004,15.428c-0.018,0.875-0.676,1.737-1.043,2.607
					l-0.964-0.355c-0.128-1.664-0.256-3.33-0.379-4.943c-0.509-0.155-0.81-0.326-1.11-0.33c-2.25-0.041-4.498-0.084-6.748-0.064
					c-4.565,0.045-4.565,0.063-4.565,4.699c-0.004,4.66,0,9.316,0,14.334h-8.302c0,2.398,0.215,4.449-0.093,6.425
					c-0.139,0.907-1.297,1.654-1.993,2.472v179.271h-6.98V235.912z M1086.917,575.411h-6.79V419.243h-13.466
					c-1.036,0-1.12-1.831-1.271-4.778c-0.026-0.536,0.071-1.222-0.146-1.667c-1.945-3.975-3.946-7.963-5.925-11.905
					c-0.903,2.243-1.941,4.654-2.866,7.128c-1.147,3.075-3.678,5.822-3.024,9.563c0.062,0.338-0.841,1.659-1.698,1.659h-12.345
					v156.168h-11.317V457.72h-13.838c-0.999,0-1.452-1.835-1.247-3.481c0.344-2.779-0.94-4.879-2.999-6.494
					c-0.226-0.174-0.346-0.62-0.42-0.922c-0.639-2.551-1.258-5.148-1.883-7.699c-2.077,3.401-3.487,6.554-4.737,9.791
					c-0.683,1.767-1.39,3.938-1.551,5.794c-0.122,1.392-0.302,3.012-0.904,3.012h-15.425v117.691h-10.618
					c0.03-28.199,1.566-56.464,1.566-84.666v-0.011v-3.716v-7.877v-0.09V462.52v-0.021c0-20.314-1.519-41.235-6.368-61.915
					c-1.236,0.346-2.631,0.623-3.894,0.973c-1.173-4.717-2.515-9.322-3.646-13.876c-1.136,0.178-2.012,0.299-2.83,0.425
					c-0.605-3.2-1.218-6.176-1.915-9.867c-6.669,4.896-13.115,4.356-19.593,0.257c-0.672,3.664-1.235,6.676-1.8,9.747
					c-1.017-0.218-1.821-0.384-2.725-0.575c-1.158,4.974-2.285,9.8-3.438,14.751c-1.434-0.704-2.473-1.214-4.192-2.063
					c-1.45,12.15-3.941,23.906-4.063,35.687c-0.473,45.975-0.196,92.041-0.188,138.02c0,0.365,0.008,0.854,0.018,1.352h-10.682
					c0.018-48.817,0.035-97.638,0.054-146.456c0.002-9.758,0.354-19.526-0.101-29.26c-0.44-9.457,1.04-18.854-1.385-28.465
					c-1.836-7.263-0.482-15.337-0.547-23.05c-0.005-1.024,0-2.054,0-3.725c-5.988,3.634-11.34,7.135-16.937,10.194
					c-3.832,2.093-6.827,4.284-5.651,9.268c0.077,0.333-0.237,0.761-0.446,1.372h-22.384c-0.21,1.11-0.194,2.022-0.554,2.754
					c-1.537,3.117-3.086,6.216-3.086,9.804c-0.005,65.06-0.005,130.121,0.006,195.179c0,0.795,0.039,1.591,0.089,2.386h-10.55
					c-0.002-26.848,0.186-53.701-0.092-80.545c-0.423-40.932-0.189-81.905-5.722-122.597c-1.265-9.314-2.894-18.58-4.497-28.773
					c-5.767,2.953-10.949,5.442-15.951,8.255c-1.816,1.021-2.989,1.11-4.854,0.042c-2.979-1.696-6.036-3.268-9.149-4.841v-111.04
					h277.976V575.411z"/>
				<path fill="#F0F0F0" d="M590.146,472.765c-0.221,0.276-0.441,0.558-0.662,0.835c0.006,0.013,0.014,0.026,0.019,0.038
					C589.714,473.348,589.929,473.057,590.146,472.765z"/>
				<path fill="#F0F0F0" d="M589.781,478.491c-0.056,0.117-0.124,0.235-0.187,0.353l0.989,0.789
					C590.313,479.252,590.049,478.872,589.781,478.491z"/>
			</g>
			
				<path fill="none" stroke="#000000" stroke-width="2.7665" stroke-linecap="round" stroke-linejoin="round" stroke-miterlimit="10" d="
				M1271.293,517.613"/>
			
				<path fill="none" stroke="#000000" stroke-width="2.7665" stroke-linecap="round" stroke-linejoin="round" stroke-miterlimit="10" d="
				M1264.378,517.613"/>
			<path fill="#F0F0F0" d="M328.788,229.122c0,29.457-23.58,53.338-52.665,53.338c-29.086,0-52.666-23.881-52.666-53.338
				c0-29.458,23.58-53.337,52.666-53.337C305.208,175.785,328.788,199.665,328.788,229.122"/>
			<path fill="#F6F6F6" d="M323.981,229.122c0,26.432-21.427,47.859-47.859,47.859c-26.431,0-47.858-21.428-47.858-47.859
				c0-26.431,21.427-47.859,47.858-47.859C302.554,181.263,323.981,202.691,323.981,229.122"/>
			<path fill="#F0F0F0" d="M276.123,197.704L276.123,197.704c-0.992,0-1.796-0.804-1.796-1.795v-8.162
				c0-0.993,0.804-1.796,1.796-1.796c0.992,0,1.795,0.804,1.795,1.796v8.162C277.918,196.9,277.114,197.704,276.123,197.704"/>
			<path fill="#F0F0F0" d="M276.123,272.295L276.123,272.295c-0.992,0-1.796-0.803-1.796-1.795v-8.162
				c0-0.992,0.804-1.796,1.796-1.796c0.992,0,1.795,0.804,1.795,1.796v8.162C277.918,271.492,277.114,272.295,276.123,272.295"/>
			<path fill="#F0F0F0" d="M307.542,229.122L307.542,229.122c0-0.992,0.804-1.795,1.795-1.795h8.162
				c0.992,0,1.795,0.803,1.795,1.795c0,0.993-0.803,1.796-1.795,1.796h-8.162C308.346,230.918,307.542,230.115,307.542,229.122"/>
			<path fill="#F0F0F0" d="M232.95,229.122L232.95,229.122c0-0.992,0.803-1.795,1.795-1.795h8.162c0.992,0,1.795,0.803,1.795,1.795
				c0,0.993-0.803,1.796-1.795,1.796h-8.162C233.753,230.918,232.95,230.115,232.95,229.122"/>
			<path fill="#F0F0F0" d="M298.339,206.905L298.339,206.905c-0.702-0.701-0.702-1.837,0-2.54l5.771-5.771
				c0.701-0.701,1.839-0.701,2.539,0c0.702,0.701,0.702,1.838,0,2.54l-5.77,5.771C300.178,207.608,299.041,207.608,298.339,206.905"
				/>
			<path fill="#F0F0F0" d="M245.595,259.649L245.595,259.649c-0.702-0.7-0.702-1.838,0-2.539l5.771-5.771
				c0.701-0.702,1.839-0.702,2.54,0c0.702,0.701,0.702,1.838,0,2.54l-5.771,5.77C247.433,260.353,246.297,260.353,245.595,259.649"
				/>
			<path fill="#F0F0F0" d="M298.339,251.338L298.339,251.338c0.702-0.7,1.838-0.7,2.54,0l5.77,5.772
				c0.702,0.701,0.702,1.839,0,2.539c-0.7,0.703-1.838,0.703-2.539,0l-5.771-5.77C297.638,253.178,297.638,252.042,298.339,251.338"
				/>
			<path fill="#F0F0F0" d="M245.595,198.595L245.595,198.595c0.702-0.701,1.838-0.701,2.54,0l5.771,5.771
				c0.702,0.702,0.702,1.839,0,2.54c-0.7,0.703-1.838,0.703-2.54,0l-5.771-5.771C244.893,200.433,244.893,199.297,245.595,198.595"
				/>
			<path fill="#F0F0F0" d="M278.644,229.122c0,1.393-1.128,2.521-2.521,2.521s-2.522-1.128-2.522-2.521
				c0-1.394,1.129-2.522,2.522-2.522S278.644,227.729,278.644,229.122"/>
			<path fill="#F0F0F0" d="M276.123,233.828L276.123,233.828c-0.449,0-0.816-0.368-0.816-0.816v-46.245
				c0-0.448,0.367-0.816,0.816-0.816c0.449,0,0.817,0.368,0.817,0.816v46.245C276.939,233.46,276.571,233.828,276.123,233.828"/>
			<path fill="#F0F0F0" d="M271.335,229.122L271.335,229.122c0-0.449,0.368-0.816,0.816-0.816h31.26
				c0.449,0,0.816,0.368,0.816,0.816c0,0.45-0.368,0.817-0.816,0.817h-31.26C271.703,229.939,271.335,229.572,271.335,229.122"/>
			<path fill="#F0F0F0" d="M297.8,191.787L297.8,191.787c-0.096-0.055-0.22-0.024-0.276,0.073l-23.836,41.057
				c-0.057,0.095-0.023,0.219,0.072,0.275c0.096,0.055,0.221,0.023,0.276-0.072l23.838-41.057
				C297.929,191.966,297.895,191.843,297.8,191.787"/>
			<path fill="#F0F0F0" d="M302.008,543.852h-53.059c-2.653,0-4.806-2.151-4.806-4.807v-2.416c0-2.653,2.153-4.806,4.806-4.806
				h53.059c2.655,0,4.806,2.152,4.806,4.806v2.416C306.814,541.7,304.663,543.852,302.008,543.852"/>
			<path fill="#F0F0F0" d="M295.345,587.801h-39.732c-3.019,0-5.535-2.313-5.791-5.321l-2.399-37.81h56.113l-2.4,37.81
				C300.881,585.488,298.365,587.801,295.345,587.801"/>
			<path fill="#F0F0F0" d="M275.872,538.485c-0.744,0-1.348-0.604-1.348-1.348v-95.367c0-0.747,0.604-1.35,1.348-1.35
				c0.744,0,1.348,0.603,1.348,1.35v95.367C277.219,537.882,276.616,538.485,275.872,538.485"/>
			<path fill="#F0F0F0" d="M285.746,476.657c-9.643,9.643-8.885,26.039-8.885,26.039s16.396,0.76,26.041-8.883
				c9.642-9.646,8.882-26.04,8.882-26.04S295.389,467.014,285.746,476.657"/>
			<path fill="#F0F0F0" d="M266.499,460.478c9.643,9.644,8.884,26.04,8.884,26.04s-16.396,0.76-26.04-8.883
				c-9.644-9.646-8.883-26.041-8.883-26.041S256.856,450.836,266.499,460.478"/>
			<path fill="#F0F0F0" d="M266.499,494.184c9.643,9.645,8.884,26.039,8.884,26.039s-16.396,0.76-26.04-8.882
				c-9.644-9.646-8.883-26.042-8.883-26.042S256.856,484.541,266.499,494.184"/>
			<path fill="#F0F0F0" d="M293.56,420.899v-0.421c0-3.154-2.881-5.797-6.192-5.797c-2.819,0-5.274,1.808-5.917,4.3
				c-0.644-2.492-3.05-4.365-5.869-4.365c-2.817,0-5.2,1.842-5.843,4.332c-0.645-2.49-3.013-4.349-5.832-4.349
				c-3.313,0-6.005,2.624-6.005,5.776c0,0.082,0.004,0.313,0.008,0.313h0.144v16.838c0,9.378,7.723,17.054,17.58,17.054h-0.251
				c9.858,0,18.176-7.676,18.176-17.054V420.899z"/>
		</g>
	</g>
</g>
<g id="Layer_4">
</g>
</svg>
